<?xml version="1.0" encoding="UTF-8"?>
<!DOCTYPE svg PUBLIC "-//W3C//DTD SVG 1.1//EN" "http://www.w3.org/Graphics/SVG/1.1/DTD/svg11.dtd">
<!-- Creator: CorelDRAW X8 -->
<svg xmlns="http://www.w3.org/2000/svg" xml:space="preserve" width="26.3312mm" height="6.1806mm" version="1.1" style="shape-rendering:geometricPrecision; text-rendering:geometricPrecision; image-rendering:optimizeQuality; fill-rule:evenodd; clip-rule:evenodd"
viewBox="0 0 2633120 618060"
 xmlns:xlink="http://www.w3.org/1999/xlink">
 <defs>
  <style type="text/css">
   <![CDATA[
    .str0 {stroke:#E3F2FD;stroke-width:7620}
    .str1 {stroke:#F7AC53;stroke-width:7620}
    .fil2 {fill:none;fill-rule:nonzero}
    .fil4 {fill:#E3F2FD}
    .fil3 {fill:#F7AC53}
    .fil0 {fill:#E3F2FD;fill-rule:nonzero}
    .fil1 {fill:#F7AC53;fill-rule:nonzero}
   ]]>
  </style>
 </defs>
 <g id="Camada_x0020_1">
  <metadata id="CorelCorpID_0Corel-Layer"/>
  <g id="_2872712573696">
   <path class="fil0" d="M190770 160000c0,136710 279620,105640 279620,223700 0,59030 -52820,111850 -136710,111850 -114950,0 -161550,-90100 -161550,-90100l-9320 6210c0,0 49710,96320 170870,96320 96320,0 155350,-59030 155350,-124280 0,-136700 -279620,-105630 -279620,-223700 0,-49710 49710,-99420 127380,-99420 86990,0 133600,71460 133600,71460l9320 -6210c0,0 -49710,-77670 -142920,-77670 -90100,0 -146020,55920 -146020,111840z"/>
   <path id="1" class="fil0" d="M846320 346420c0,0 3110,-6220 3110,-12430 0,-90100 -68350,-158450 -149130,-158450 -80780,0 -149130,68350 -149130,164660 0,96320 68350,164670 155340,164670 87000,0 130490,-71460 130490,-71460l-9320 -6210c0,0 -40390,65240 -121170,65240 -74560,0 -136700,-62130 -136700,-146020l276510 0zm-276510 -12430c0,-83890 62140,-146020 130490,-146020 68350,0 130490,62130 130490,146020l-260980 0z"/>
   <path id="2" class="fil0" d="M976800 197290l108740 0 3110 -12430 -111850 0 0 -93210 -9320 0 -9320 93210 -68340 0 0 12430 68340 0 0 198840c0,65240 43500,108740 99420,108740 49710,0 80780,-40390 80780,-40390l-9320 -6210c0,0 -27960,34170 -71460,34170 -43500,0 -80780,-37280 -80780,-96310l0 -198840z"/>
   <polygon id="3" class="fil1" points="1228460,85440 1231560,85440 1526720,495550 1545360,495550 1545360,60580 1532930,60580 1532930,470690 1529830,470690 1234670,60580 1216030,60580 1216030,495550 1228460,495550 "/>
   <path id="4" class="fil1" d="M1943040 346420c0,0 3110,-6220 3110,-12430 0,-90100 -68350,-158450 -149130,-158450 -80780,0 -149130,68350 -149130,164660 0,96320 68350,164670 155340,164670 87000,0 130490,-71460 130490,-71460l-9320 -6210c0,0 -40390,65240 -121170,65240 -74560,0 -136700,-62130 -136700,-146020l276510 0zm-276510 -12430c0,-83890 62140,-146020 130490,-146020 68350,0 130490,62130 130490,146020l-260980 0z"/>
   <polygon id="5" class="fil1" points="2325190,470690 2322080,470690 2225770,184860 2207130,184860 2110810,470690 2107710,470690 2011390,184860 1992750,184860 2098390,495550 2117030,495550 2213340,209720 2216450,209720 2312760,495550 2331400,495550 2437040,184860 2421500,184860 "/>
   <path id="6" class="fil2 str0" d="M190770 160000c0,136710 279620,105640 279620,223700 0,59030 -52820,111850 -136710,111850 -114950,0 -161550,-90100 -161550,-90100l-9320 6210c0,0 49710,96320 170870,96320 96320,0 155350,-59030 155350,-124280 0,-136700 -279620,-105630 -279620,-223700 0,-49710 49710,-99420 127380,-99420 86990,0 133600,71460 133600,71460l9320 -6210c0,0 -49710,-77670 -142920,-77670 -90100,0 -146020,55920 -146020,111840z"/>
   <path id="7" class="fil2 str0" d="M846320 346420c0,0 3110,-6220 3110,-12430 0,-90100 -68350,-158450 -149130,-158450 -80780,0 -149130,68350 -149130,164660 0,96320 68350,164670 155340,164670 87000,0 130490,-71460 130490,-71460l-9320 -6210c0,0 -40390,65240 -121170,65240 -74560,0 -136700,-62130 -136700,-146020l276510 0zm-276510 -12430c0,-83890 62140,-146020 130490,-146020 68350,0 130490,62130 130490,146020l-260980 0z"/>
   <path id="8" class="fil2 str0" d="M976800 197290l108740 0 3110 -12430 -111850 0 0 -93210 -9320 0 -9320 93210 -68340 0 0 12430 68340 0 0 198840c0,65240 43500,108740 99420,108740 49710,0 80780,-40390 80780,-40390l-9320 -6210c0,0 -27960,34170 -71460,34170 -43500,0 -80780,-37280 -80780,-96310l0 -198840z"/>
   <polygon id="9" class="fil2 str1" points="1228460,85440 1231560,85440 1526720,495550 1545360,495550 1545360,60580 1532930,60580 1532930,470690 1529830,470690 1234670,60580 1216030,60580 1216030,495550 1228460,495550 "/>
   <path id="10" class="fil2 str1" d="M1943040 346420c0,0 3110,-6220 3110,-12430 0,-90100 -68350,-158450 -149130,-158450 -80780,0 -149130,68350 -149130,164660 0,96320 68350,164670 155340,164670 87000,0 130490,-71460 130490,-71460l-9320 -6210c0,0 -40390,65240 -121170,65240 -74560,0 -136700,-62130 -136700,-146020l276510 0zm-276510 -12430c0,-83890 62140,-146020 130490,-146020 68350,0 130490,62130 130490,146020l-260980 0z"/>
   <polygon id="11" class="fil2 str1" points="2325190,470690 2322080,470690 2225770,184860 2207130,184860 2110810,470690 2107710,470690 2011390,184860 1992750,184860 2098390,495550 2117030,495550 2213340,209720 2216450,209720 2312760,495550 2331400,495550 2437040,184860 2421500,184860 "/>
   <polygon class="fil3" points="5610,9480 1145060,9480 1145060,27100 5610,27100 "/>
   <polygon class="fil4" points="1218820,584540 2620030,584540 2620030,602150 1218820,602150 "/>
  </g>
 </g>
</svg>
