<?xml version="1.0" encoding="UTF-8"?>
<!DOCTYPE svg PUBLIC "-//W3C//DTD SVG 1.1//EN" "http://www.w3.org/Graphics/SVG/1.1/DTD/svg11.dtd">
<!-- Creator: CorelDRAW X8 -->
<svg xmlns="http://www.w3.org/2000/svg" xml:space="preserve" width="35.5598mm" height="11.8532mm" version="1.1" style="shape-rendering:geometricPrecision; text-rendering:geometricPrecision; image-rendering:optimizeQuality; fill-rule:evenodd; clip-rule:evenodd"
viewBox="0 0 3555980 1185320"
 xmlns:xlink="http://www.w3.org/1999/xlink">
 <defs>
  <style type="text/css">
   <![CDATA[
    .str0 {stroke:#E3F2FD;stroke-width:7620}
    .str1 {stroke:#F7AC53;stroke-width:7620}
    .fil2 {fill:none;fill-rule:nonzero}
    .fil4 {fill:#E3F2FD}
    .fil3 {fill:#F7AC53}
    .fil0 {fill:#E3F2FD;fill-rule:nonzero}
    .fil1 {fill:#F7AC53;fill-rule:nonzero}
   ]]>
  </style>
 </defs>
 <g id="Camada_x0020_1">
  <metadata id="CorelCorpID_0Corel-Layer"/>
  <g id="_2358391284848">
   <path class="fil0" d="M749290 615650c0,160930 329170,124360 329170,263340 0,69490 -62180,131670 -160930,131670 -135330,0 -190190,-106070 -190190,-106070l-10970 7320c0,0 58520,113380 201160,113380 113380,0 182880,-69490 182880,-146300 0,-160930 -329180,-124350 -329180,-263340 0,-58520 58520,-117040 149960,-117040 102410,0 157270,84120 157270,84120l10970 -7310c0,0 -58520,-91440 -168240,-91440 -106070,0 -171900,65840 -171900,131670z"/>
   <path id="1" class="fil0" d="M1521020 835100c0,0 3650,-7310 3650,-14630 0,-106070 -80460,-186530 -175560,-186530 -95090,0 -175560,80460 -175560,193850 0,113380 80470,193840 182880,193840 102410,0 153610,-84120 153610,-84120l-10970 -7310c0,0 -47550,76800 -142640,76800 -87780,0 -160930,-73150 -160930,-171900l325520 0zm-325520 -14630c0,-98750 73150,-171900 153610,-171900 80470,0 153620,73150 153620,171900l-307230 0z"/>
   <path id="2" class="fil0" d="M1674630 659540l128010 0 3660 -14630 -131670 0 0 -109720 -10970 0 -10980 109720 -80460 0 0 14630 80460 0 0 234080c0,76810 51210,128010 117040,128010 58520,0 95100,-47540 95100,-47540l-10970 -7320c0,0 -32920,40230 -84130,40230 -51200,0 -95090,-43890 -95090,-113380l0 -234080z"/>
   <polygon id="3" class="fil1" points="1970880,527870 1974540,527870 2322000,1010660 2343950,1010660 2343950,498610 2329320,498610 2329320,981400 2325660,981400 1978200,498610 1956250,498610 1956250,1010660 1970880,1010660 "/>
   <path id="4" class="fil1" d="M2812110 835100c0,0 3650,-7310 3650,-14630 0,-106070 -80460,-186530 -175560,-186530 -95090,0 -175560,80460 -175560,193850 0,113380 80470,193840 182880,193840 102410,0 153610,-84120 153610,-84120l-10970 -7310c0,0 -47550,76800 -142640,76800 -87780,0 -160930,-73150 -160930,-171900l325520 0zm-325520 -14630c0,-98750 73150,-171900 153610,-171900 80470,0 153620,73150 153620,171900l-307230 0z"/>
   <polygon id="5" class="fil1" points="3261990,981400 3258330,981400 3144950,644910 3123000,644910 3009620,981400 3005960,981400 2892580,644910 2870620,644910 2994990,1010660 3016930,1010660 3130320,674170 3133970,674170 3247360,1010660 3269300,1010660 3393660,644910 3375370,644910 "/>
   <path id="6" class="fil2 str0" d="M749290 615650c0,160930 329170,124360 329170,263340 0,69490 -62180,131670 -160930,131670 -135330,0 -190190,-106070 -190190,-106070l-10970 7320c0,0 58520,113380 201160,113380 113380,0 182880,-69490 182880,-146300 0,-160930 -329180,-124350 -329180,-263340 0,-58520 58520,-117040 149960,-117040 102410,0 157270,84120 157270,84120l10970 -7310c0,0 -58520,-91440 -168240,-91440 -106070,0 -171900,65840 -171900,131670z"/>
   <path id="7" class="fil2 str0" d="M1521020 835100c0,0 3650,-7310 3650,-14630 0,-106070 -80460,-186530 -175560,-186530 -95090,0 -175560,80460 -175560,193850 0,113380 80470,193840 182880,193840 102410,0 153610,-84120 153610,-84120l-10970 -7310c0,0 -47550,76800 -142640,76800 -87780,0 -160930,-73150 -160930,-171900l325520 0zm-325520 -14630c0,-98750 73150,-171900 153610,-171900 80470,0 153620,73150 153620,171900l-307230 0z"/>
   <path id="8" class="fil2 str0" d="M1674630 659540l128010 0 3660 -14630 -131670 0 0 -109720 -10970 0 -10980 109720 -80460 0 0 14630 80460 0 0 234080c0,76810 51210,128010 117040,128010 58520,0 95100,-47540 95100,-47540l-10970 -7320c0,0 -32920,40230 -84130,40230 -51200,0 -95090,-43890 -95090,-113380l0 -234080z"/>
   <polygon id="9" class="fil2 str1" points="1970880,527870 1974540,527870 2322000,1010660 2343950,1010660 2343950,498610 2329320,498610 2329320,981400 2325660,981400 1978200,498610 1956250,498610 1956250,1010660 1970880,1010660 "/>
   <path id="10" class="fil2 str1" d="M2812110 835100c0,0 3650,-7310 3650,-14630 0,-106070 -80460,-186530 -175560,-186530 -95090,0 -175560,80460 -175560,193850 0,113380 80470,193840 182880,193840 102410,0 153610,-84120 153610,-84120l-10970 -7310c0,0 -47550,76800 -142640,76800 -87780,0 -160930,-73150 -160930,-171900l325520 0zm-325520 -14630c0,-98750 73150,-171900 153610,-171900 80470,0 153620,73150 153620,171900l-307230 0z"/>
   <polygon id="11" class="fil2 str1" points="3261990,981400 3258330,981400 3144950,644910 3123000,644910 3009620,981400 3005960,981400 2892580,644910 2870620,644910 2994990,1010660 3016930,1010660 3130320,674170 3133970,674170 3247360,1010660 3269300,1010660 3393660,644910 3375370,644910 "/>
   <g>
    <rect class="fil3" x="707306" y="378307" width="1165423" height="20736"/>
    <rect class="fil4" x="1959567" y="1119572" width="1450667" height="20736"/>
   </g>
  </g>
 </g>
</svg>
